<svg xmlns="http://www.w3.org/2000/svg" width="32" height="32" viewBox="0 0 32 32" fill="none">
  <path d="M29.8836 6.146L16.7418 29.6457C16.3753 30.3085 15.4065 30.3085 15.0399 29.6457L1.89807 6.14601C1.4902 5.41035 2.0566 4.54282 2.85833 4.63506L15.8919 6.21029C15.9643 6.21927 16.0381 6.21927 16.1105 6.21029L29.1441 4.63506C29.9458 4.54282 30.5122 5.41035 29.8836 6.146Z" fill="url(#paint0_linear_18_32)"/>
  <path d="M24.9424 2.32497L16.5664 4.40112C16.1947 4.4921 15.8061 4.4921 15.4344 4.40112L7.05835 2.32497C6.32915 2.14661 5.9847 1.39048 6.32206 0.740991C6.49661 0.420477 6.78231 0.181281 7.12656 0.0840083L15.4336 2.3577e-07C15.8069 -0.0003133 16.1764 0.0964223 16.5031 0.282007L24.879 0.0840083C25.6328 0.0124789 26.2628 0.619481 26.1912 1.3732C26.1554 1.76391 25.971 2.12319 25.6754 2.36723C25.4455 2.5459 25.1809 2.53342 24.9424 2.32497Z" fill="url(#paint1_linear_18_32)"/>
  <defs>
    <linearGradient id="paint0_linear_18_32" x1="16" y1="4.57031" x2="16" y2="30" gradientUnits="userSpaceOnUse">
      <stop stop-color="#41D1FF"/>
      <stop offset="1" stop-color="#BD34FE"/>
    </linearGradient>
    <linearGradient id="paint1_linear_18_32" x1="16.1923" y1="0" x2="16.1923" y2="4.47583" gradientUnits="userSpaceOnUse">
      <stop stop-color="#FFEA83"/>
      <stop offset="0.0833333" stop-color="#FFDD35"/>
      <stop offset="1" stop-color="#FFA800"/>
    </linearGradient>
  </defs>
</svg> 